# xmcd CD database file
#
# Track frame offsets:
#	183
#	10998
#	26340
#	37195
#	48913
#	61763
#	72113
#	84893
#	98083
#	111103
#	129248
#
# Disc length: 2031 seconds
#
# Revision: 0
# Processed by: cddbd v1.4PL0 Copyright (c) Steve Scherf et al.
# Submitted via: CDex 1.40Release
#
DISCID=7e07ed0b
DTITLE=J J Cale - Cajun Moon
DYEAR=1900
DGENRE=Blues
TTITLE0=Crazy Mama
TTITLE1=Magnolia
TTITLE2=After Midnight
TTITLE3=Call Me The Breeze
TTITLE4=Lies
TTITLE5=Cajun Moon
TTITLE6=Cocaine
TTITLE7=Cherry
TTITLE8=The Woman That Got Away
TTITLE9=You Got Something
TTITLE10=Sensitive Kind
EXTD=ID3G: 0
EXTT0=
EXTT1=
EXTT2=
EXTT3=
EXTT4=
EXTT5=
EXTT6=
EXTT7=
EXTT8=
EXTT9=
EXTT10=
PLAYORDER=
